<?xml version="1.0" standalone="no"?>
<!DOCTYPE svg PUBLIC "-//W3C//DTD SVG 20010904//EN"
 "http://www.w3.org/TR/2001/REC-SVG-20010904/DTD/svg10.dtd">
<svg version="1.0" xmlns="http://www.w3.org/2000/svg"
 width="2712.000000pt" height="1936.000000pt" viewBox="0 0 2712.000000 1936.000000"
 preserveAspectRatio="xMidYMid meet">
<metadata>
Created by potrace 1.16, written by Peter Selinger 2001-2019
</metadata>
<g transform="translate(0.000000,1936.000000) scale(0.100000,-0.100000)"
fill="#000000" stroke="none">
<path d="M0 9680 l0 -9680 13560 0 13560 0 0 9680 0 9680 -13560 0 -13560 0 0
-9680z m12356 6697 l24 -28 0 -459 0 -459 -24 -28 -24 -28 -412 0 -412 0 -24
28 -24 28 0 452 c0 342 3 458 13 477 25 49 33 50 460 48 l399 -3 24 -28z
m2900 -10 l24 -28 0 -459 0 -459 -24 -28 -24 -28 -412 0 -412 0 -24 28 -24 28
0 452 c0 342 3 458 13 477 25 49 33 50 460 48 l399 -3 24 -28z m-61 -2187
c245 -21 531 -82 731 -155 241 -88 519 -248 709 -407 125 -104 306 -295 401
-421 354 -476 555 -1013 641 -1712 23 -189 26 -877 5 -1070 -108 -983 -449
-1786 -974 -2291 -369 -355 -789 -550 -1384 -641 -100 -16 -337 -17 -2811 -20
l-2703 -3 0 3365 0 3365 2633 0 c1694 0 2675 -4 2752 -10z m-10290 -8794 c236
-69 394 -229 456 -463 30 -111 30 -335 0 -446 -54 -204 -186 -359 -367 -431
-131 -53 -173 -56 -714 -56 l-500 0 0 23 c0 16 9 26 30 34 l30 11 0 642 0 642
-30 11 c-22 8 -30 18 -30 35 l0 23 533 -4 c472 -3 539 -5 592 -21z m10930 0
c236 -69 394 -229 456 -463 30 -111 30 -335 0 -446 -54 -204 -186 -359 -367
-431 -131 -53 -173 -56 -714 -56 l-500 0 0 23 c0 16 9 26 30 34 l30 11 0 642
0 642 -30 11 c-22 8 -30 18 -30 35 l0 23 533 -4 c472 -3 539 -5 592 -21z
m-8975 -306 l0 -150 -24 0 c-13 0 -30 10 -38 23 l-15 22 -359 0 -359 0 -3
-132 -3 -133 228 0 c125 0 238 3 250 6 12 3 25 15 29 26 4 13 13 18 27 16 21
-3 22 -7 22 -148 0 -144 0 -145 -23 -148 -17 -3 -25 2 -29 17 -7 28 -50 33
-293 29 l-205 -3 -3 -157 -3 -158 355 0 c215 0 365 4 381 10 15 6 29 19 32 30
3 13 14 20 29 20 l24 0 0 -145 c0 -140 -1 -145 -21 -145 -11 0 -27 7 -35 15
-13 13 -87 15 -540 15 l-524 0 0 23 c0 12 9 28 20 35 20 12 20 23 20 537 0
514 0 525 -20 537 -11 7 -20 23 -20 35 l0 22 511 3 512 3 15 23 c8 12 25 22
38 22 l24 0 0 -150z m3470 0 l0 -150 -24 0 c-13 0 -30 10 -38 23 l-15 22 -359
0 -359 0 -3 -132 -3 -133 228 0 c125 0 238 3 250 6 12 3 25 15 29 26 4 13 13
18 27 16 21 -3 22 -7 22 -148 0 -144 0 -145 -23 -148 -17 -3 -25 2 -29 17 -7
28 -50 33 -293 29 l-205 -3 -3 -157 -3 -158 355 0 c215 0 365 4 381 10 15 6
29 19 32 30 3 13 14 20 29 20 l24 0 0 -145 c0 -140 -1 -145 -21 -145 -11 0
-27 7 -35 15 -13 13 -87 15 -540 15 l-524 0 0 23 c0 12 9 28 20 35 20 12 20
23 20 537 0 514 0 525 -20 537 -11 7 -20 23 -20 35 l0 22 511 3 512 3 15 23
c8 12 25 22 38 22 l24 0 0 -150z m2770 91 c231 -62 385 -203 446 -406 28 -91
26 -277 -3 -370 -43 -138 -160 -274 -288 -335 -124 -59 -200 -73 -400 -74
-155 -1 -192 2 -269 22 -227 57 -389 208 -443 413 -22 84 -22 243 0 326 36
138 122 257 241 334 71 47 144 75 256 100 114 25 348 20 460 -10z m9880 1 c41
-12 115 -37 164 -57 79 -32 92 -34 123 -24 64 21 61 2 -21 -155 -71 -134 -79
-145 -97 -135 -13 6 -18 17 -14 28 9 28 -30 67 -98 100 -202 99 -481 89 -635
-22 -107 -76 -156 -180 -155 -327 1 -110 27 -181 93 -253 93 -102 214 -143
415 -141 141 2 228 14 312 45 l53 20 0 85 0 84 -144 0 c-155 0 -191 -7 -201
-39 -4 -14 -15 -21 -31 -21 l-24 0 0 145 c0 162 4 169 62 120 l30 -25 284 0
284 0 0 -23 c0 -12 -9 -30 -20 -40 -18 -15 -20 -29 -20 -177 0 -149 1 -161 20
-172 35 -22 24 -45 -42 -82 -79 -43 -178 -78 -288 -102 -67 -15 -126 -19 -280
-19 -227 1 -317 17 -457 85 -282 137 -395 493 -251 788 86 175 278 294 543
336 17 2 95 3 175 1 108 -2 164 -8 220 -23z m-15300 -13 c0 -12 -8 -27 -17
-34 -15 -11 2 -47 168 -353 101 -188 186 -342 189 -342 9 0 370 666 370 683 0
9 -4 17 -10 17 -5 0 -10 11 -10 25 l0 25 195 0 195 0 0 -24 c0 -15 -7 -26 -20
-29 -20 -5 -20 -14 -20 -536 0 -520 0 -531 20 -543 11 -7 20 -23 20 -35 0 -23
-1 -23 -160 -23 -160 0 -160 0 -160 23 0 14 9 26 23 32 l22 10 2 390 c2 310 0
387 -10 374 -6 -9 -111 -200 -232 -423 -147 -272 -225 -405 -234 -404 -8 2
-112 192 -230 423 l-216 420 -3 -378 c-2 -381 1 -417 33 -417 9 0 15 -10 15
-25 l0 -25 -155 0 -155 0 0 25 c0 14 7 28 15 31 13 5 15 75 15 540 0 466 -2
535 -15 540 -8 4 -15 17 -15 30 l0 24 190 0 c187 0 190 0 190 -21z m3430 -2
c0 -16 -9 -26 -30 -34 l-30 -11 0 -461 0 -461 369 0 c225 0 380 4 396 10 15 6
29 19 32 30 3 13 14 20 29 20 l24 0 0 -145 c0 -140 -1 -145 -21 -145 -11 0
-27 7 -35 15 -13 13 -91 15 -575 15 l-559 0 0 23 c0 17 8 25 33 32 l32 10 0
530 0 530 -32 10 c-25 7 -33 15 -33 32 l0 23 200 0 200 0 0 -23z m6010 -1 c0
-19 -7 -25 -34 -30 -19 -4 -37 -14 -40 -22 -3 -9 -6 -244 -6 -524 0 -554 -1
-540 56 -540 19 0 24 -5 24 -25 l0 -25 -210 0 -210 0 0 25 c0 19 5 25 21 25
11 0 29 5 40 10 18 10 19 27 19 535 0 508 -1 525 -19 535 -11 5 -29 10 -40 10
-16 0 -21 6 -21 25 l0 25 210 0 210 0 0 -24z m870 1 c0 -13 -5 -28 -11 -34 -9
-9 31 -56 152 -184 90 -95 247 -262 349 -370 102 -108 188 -197 193 -198 4 -1
7 163 7 363 0 318 -2 367 -16 380 -8 9 -22 16 -30 16 -8 0 -14 10 -14 25 l0
25 170 0 c170 0 170 0 170 -23 0 -14 -9 -26 -22 -32 l-23 -10 0 -530 0 -530
23 -10 c13 -6 22 -18 22 -32 l0 -23 -180 0 -180 0 0 24 c0 13 5 26 12 28 7 3
8 10 2 20 -5 9 -173 191 -374 404 l-365 388 -3 -393 c-2 -399 -1 -421 34 -421
8 0 14 -10 14 -25 l0 -25 -165 0 -165 0 0 25 c0 15 6 25 15 25 8 0 19 9 25 19
6 13 10 196 10 526 0 330 -4 513 -10 526 -6 10 -17 19 -25 19 -9 0 -15 10 -15
25 l0 25 200 0 200 0 0 -23z m1840 -1 c0 -19 -7 -25 -34 -30 -19 -4 -37 -14
-40 -22 -3 -9 -6 -244 -6 -524 0 -554 -1 -540 56 -540 19 0 24 -5 24 -25 l0
-25 -210 0 -210 0 0 25 c0 19 5 25 21 25 11 0 29 5 40 10 18 10 19 27 19 535
0 508 -1 525 -19 535 -11 5 -29 10 -40 10 -16 0 -21 6 -21 25 l0 25 210 0 210
0 0 -24z m870 1 c0 -13 -5 -28 -11 -34 -9 -9 31 -56 152 -184 90 -95 247 -262
349 -370 102 -108 188 -197 193 -198 4 -1 7 163 7 363 0 318 -2 367 -16 380
-8 9 -22 16 -30 16 -8 0 -14 10 -14 25 l0 25 170 0 c170 0 170 0 170 -23 0
-14 -9 -26 -22 -32 l-23 -10 0 -530 0 -530 23 -10 c13 -6 22 -18 22 -32 l0
-23 -180 0 -180 0 0 24 c0 13 5 26 12 28 7 3 8 10 2 20 -5 9 -173 191 -374
404 l-365 388 -3 -393 c-2 -399 -1 -421 34 -421 8 0 14 -10 14 -25 l0 -25
-165 0 -165 0 0 25 c0 15 6 25 15 25 8 0 19 9 25 19 6 13 10 196 10 526 0 330
-4 513 -10 526 -6 10 -17 19 -25 19 -9 0 -15 10 -15 25 l0 25 200 0 200 0 0
-23z"/>
<path d="M10730 10825 l0 -2585 740 0 740 0 -2 2583 -3 2582 -737 3 -738 2 0
-2585z"/>
<path d="M14516 13344 c358 -406 604 -945 718 -1574 52 -290 61 -406 61 -835
0 -410 -5 -500 -46 -775 -105 -703 -373 -1366 -731 -1807 -39 -48 -76 -94 -82
-102 -9 -12 30 -13 274 -8 470 10 671 45 919 163 620 293 996 953 1116 1959
56 468 9 1129 -112 1575 -119 443 -344 836 -600 1052 -201 169 -427 281 -706
348 -184 44 -326 60 -612 67 l-260 6 61 -69z"/>
<path d="M13130 10821 l0 -2460 38 16 c650 271 1054 952 1177 1988 56 468 9
1129 -112 1575 -94 350 -264 689 -457 911 -143 165 -356 314 -575 403 -36 14
-66 26 -68 26 -2 0 -3 -1107 -3 -2459z"/>
<path d="M4150 4700 l0 -480 238 0 c407 0 517 28 607 154 57 81 70 140 70 326
0 186 -13 245 -70 326 -90 126 -200 154 -607 154 l-238 0 0 -480z"/>
<path d="M15080 4700 l0 -480 238 0 c407 0 517 28 607 154 57 81 70 140 70
326 0 186 -13 245 -70 326 -90 126 -200 154 -607 154 l-238 0 0 -480z"/>
<path d="M12733 4985 c-132 -29 -255 -121 -310 -232 -25 -53 -28 -68 -28 -163
0 -95 3 -110 28 -163 86 -174 308 -276 514 -235 199 39 334 165 362 336 35
216 -110 407 -347 458 -82 17 -138 17 -219 -1z"/>
</g>
</svg>
