<svg xmlns="http://www.w3.org/2000/svg" xml:space="preserve" viewBox="0 0 40 40">
  <defs>
    <clipPath id="a">
      <path d="M3 7h18v16H3V7z"/>
    </clipPath>
    <clipPath id="z">
      <path d="M3 7h18v16H3V7z"/>
    </clipPath>
    <clipPath id="A">
      <path d="M3 7h18v16H3V7z"/>
    </clipPath>
    <clipPath id="b">
      <path d="M12 4h18v19H12V4z"/>
    </clipPath>
    <clipPath id="C">
      <path d="M12 4h18v19H12V4z"/>
    </clipPath>
    <clipPath id="D">
      <path d="M12 4h18v19H12V4z"/>
    </clipPath>
    <clipPath id="c">
      <path d="M4 10h13v12H4V10z"/>
    </clipPath>
    <clipPath id="F">
      <path d="M4 10h13v12H4V10z"/>
    </clipPath>
    <clipPath id="G">
      <path d="M4 10h13v12H4V10z"/>
    </clipPath>
    <clipPath id="d">
      <path d="M7 15h3v4H7v-4z"/>
    </clipPath>
    <clipPath id="I">
      <path d="M7 15h3v4H7v-4z"/>
    </clipPath>
    <clipPath id="J">
      <path d="M7 15h3v4H7v-4z"/>
    </clipPath>
    <clipPath id="e">
      <path d="M7 14h2v2H7v-2z"/>
    </clipPath>
    <clipPath id="L">
      <path d="M7 14h2v2H7v-2z"/>
    </clipPath>
    <clipPath id="M">
      <path d="M7 14h2v2H7v-2z"/>
    </clipPath>
    <clipPath id="Q">
      <path d="m14.266 25.098-.633.105a2.757 2.757 0 0 1-.633 0l-.176-.07.492-.106.317-.14h-.774l.668-.141c.282-.07.481-.141.598-.211-.375.094-.902.141-1.582.141-.445 0-.844-.059-1.195-.176l-.418-.141.246.106c.164.094.515.199 1.051.316l-.493-.07-.91-.246.422.14c.211.094.5.188.879.282l-.844-.141a41.476 41.476 0 0 1-.808-.246 11.07 11.07 0 0 0-.809-.141l1.723.563c.398.117.691.234.879.351l-1.055-.211.422.211c.328.165.621.247.879.247l.98-.106h-.664c-.164 0-.281-.023-.351-.07l-.071-.071h.84c.328 0 .668-.058 1.02-.175z"/>
    </clipPath>
    <clipPath id="f">
      <path d="M-16.382-9.052h8.897v4.236h-8.897v-4.236z"/>
    </clipPath>
    <clipPath id="T">
      <path d="m13.105 21.094.176.246 1.196 1.828-.528-.316-.492-.633.035.176.422.738-.492-.492c-.164-.141-.305-.375-.422-.703a2.304 2.304 0 0 1-.141-.422c.047.257.153.574.317.949.094.258.199.433.316.527.07.07.117.106.141.106-.071 0-.129-.036-.176-.106l-.387-.351.211.316c.141.234.281.398.422.492l.317.106-.317-.387.281.176c.071.07.235.152.493.246l-.247-.211-.105-.281.242.211c.117.093.293.175.528.246l-.176-.141-.176-.387.352.387-.207-.281-.25-.422.281.246c.117.141.281.246.492.316l-.352-.351-.281-.387.527.352c.141.14.34.258.598.351l-.945-.808-.528-.563.176.281.137.317a.766.766 0 0 1-.176-.141 1.565 1.565 0 0 1-.277-.386 3.933 3.933 0 0 0-.598-.739l.699 1.336-.457-.633a6.346 6.346 0 0 0-.629-.808z"/>
    </clipPath>
    <clipPath id="h">
      <path d="M-4.648-21.369h6.652v7.095h-6.652v-7.095z"/>
    </clipPath>
    <clipPath id="W">
      <path d="M7.66 24.078c-.324.164-.558.457-.699.879l-.106.563.106-.317a1.64 1.64 0 0 1 .312-.527c.188-.188.504-.317.95-.387a3.03 3.03 0 0 1 .843 0l-.984-.141.457-.07c.258-.019.621 0 1.09.074-.047-.074-.352-.117-.914-.144-.352-.02-.621 0-.809.07l.176-.101c.211-.094.539-.133.984-.106-.375-.098-.843-.027-1.406.207z"/>
    </clipPath>
    <clipPath id="j">
      <path d="M5.449-1.451h7.003v6.366H5.449v-6.366z"/>
    </clipPath>
    <clipPath id="Z">
      <path d="M11.633 19.898c.094-.023.222.082.387.321l.453.699a2.505 2.505 0 0 0-.348-.773l-.387-.418.282.101.316.211a1.337 1.337 0 0 0-.422-.348l-.246-.144c0-.07.141-.031.422.109l.562.242c-.187-.257-.644-.421-1.371-.488-.469-.047-.832-.058-1.09-.035l-.246.035.211.035c.422-.07.762.012 1.02.246.258.231.5.512.734.84l-.277-.633z"/>
    </clipPath>
    <clipPath id="l">
      <path d="M12.452 3.005h6.366v5.093h-6.366V3.005z"/>
    </clipPath>
    <clipPath id="ac">
      <path d="m21.43 20.566.386-.316c.141-.141.34-.27.598-.387a.885.885 0 0 0-.281.246l-.422.563.422-.457c.164-.164.375-.27.633-.317l-.246.176-.352.317.281-.211.317-.106-.246.176-.528.668.633-.527c.281-.258.41-.317.387-.176l-.422.562.879-.703c.445-.304.679-.433.703-.386.07-.047.058-.071-.035-.071l-.633.176.316-.176c.141-.07.352-.14.633-.211l-.422.035-.703.145.563-.25c.218-.074.398-.129.543-.156-.344.039-.817.14-1.422.297-.489.14-.903.363-1.231.668l-.351.421z"/>
    </clipPath>
    <clipPath id="n">
      <path d="M27.731-4.634h6.366V.459h-6.366v-5.093z"/>
    </clipPath>
    <clipPath id="af">
      <path d="M23.539 23.273h-.176l-.246-.07 1.332-.035-1.051-.141h1.473l-1.789-.175c-.398-.024-.727 0-.984.07l-.282.105c.375-.07.657-.07.844 0l-1.09.211.387-.035c.188-.023.398-.012.633.035h-.563c-.14 0-.304.047-.492.141l-.246.141.668-.18c.328-.067.539-.082.633-.031h-.176l-.281.171 1.406-.207z"/>
    </clipPath>
    <clipPath id="p">
      <path d="M25.821-8.454h6.366v5.092h-6.366v-5.092z"/>
    </clipPath>
    <clipPath id="ai">
      <path d="M19.148 25.344c.188-.094.434-.141.739-.141.234 0 .383.024.453.07-.113-.093-.278-.152-.492-.175-.211-.024-.371-.012-.489.035l-.211.211z"/>
    </clipPath>
    <clipPath id="r">
      <path d="M22.064-8.235h3.183v2.529h-3.183v-2.53z"/>
    </clipPath>
    <clipPath id="al">
      <path d="m21.57 21.375-.211.07.211-.211a.956.956 0 0 0 .246-.281l-.316.246-.387.141.075-.035.207-.317c-.047 0-.149.071-.317.211-.09.094-.164.129-.211.106v-.071l.141-.422-.211.317-.524.387.493-.176v.105l-.075.141.282-.106-.348.352.316-.141c.141-.093.247-.129.317-.105l-.387.387.527-.282c.141-.093.375-.304.704-.632l-.563.457.246-.246-.215.105z"/>
    </clipPath>
    <clipPath id="t">
      <path d="M24.325-11.883h5.09v4.95h-5.09v-4.95z"/>
    </clipPath>
    <clipPath id="ao">
      <path d="m20.34 23.379.07-.07a.79.79 0 0 1 .281-.106l.387-.07-.914.14-.527.137.703.035-.77.352h.7l-.247.176-.281.07-.035.07.492-.14.317-.141-.352.07.633-.382-.527.14h-.141l.773-.281a1.212 1.212 0 0 0-.422 0h-.14z"/>
    </clipPath>
    <clipPath id="v">
      <path d="M23.39-.186h4.718V3.39H23.39V-.186z"/>
    </clipPath>
    <linearGradient id="N" y2=".379" gradientUnits="userSpaceOnUse" x2="-19.863" gradientTransform="matrix(-.702 .02536 .02536 .702 2.92 28.401)" y1=".379" x1="-21.939">
      <stop style="stop-color:#599c00" offset="0"/>
      <stop style="stop-color:#425200" offset="1"/>
    </linearGradient>
    <linearGradient id="O" y2="1.348" gradientUnits="userSpaceOnUse" x2="23.514" gradientTransform="matrix(.69896 -.07024 -.07024 -.69896 2.92 28.4)" y1="1.348" x1="18.766">
      <stop style="stop-color:#599c00" offset="0"/>
      <stop style="stop-color:#425200" offset="1"/>
    </linearGradient>
    <linearGradient id="P" y2="3.475" gradientUnits="userSpaceOnUse" x2="21.6" gradientTransform="matrix(.70248 0 0 -.70248 2.92 28.4)" y1="3.475" x1="18.1">
      <stop style="stop-color:#599c00" offset="0"/>
      <stop style="stop-color:#425200" offset="1"/>
    </linearGradient>
    <linearGradient id="g" y2="-7.194" gradientUnits="userSpaceOnUse" x2="-11.21" y1="-7.194" x1="-14.05">
      <stop style="stop-color:#fff" offset="0"/>
      <stop style="stop-color:#fff;stop-opacity:0" offset="1"/>
    </linearGradient>
    <linearGradient id="S" y2="-7.194" gradientUnits="userSpaceOnUse" x2="-11.21" y1="-7.194" x1="-14.05">
      <stop style="stop-color:#97c41b" offset="0"/>
      <stop style="stop-color:#cdff00" offset="1"/>
    </linearGradient>
    <linearGradient id="i" y2="-17.956" gradientUnits="userSpaceOnUse" x2="-.514" y1="-17.956" x1="-2.761">
      <stop style="stop-color:#fff" offset="0"/>
      <stop style="stop-color:#fff;stop-opacity:0" offset="1"/>
    </linearGradient>
    <linearGradient id="V" y2="-17.956" gradientUnits="userSpaceOnUse" x2="-.514" y1="-17.956" x1="-2.761">
      <stop style="stop-color:#97c41b" offset="0"/>
      <stop style="stop-color:#cdff00" offset="1"/>
    </linearGradient>
    <linearGradient id="k" y2="1.812" gradientUnits="userSpaceOnUse" x2="10.789" y1="1.812" x1="7.323">
      <stop style="stop-color:#fff" offset="0"/>
      <stop style="stop-color:#fff;stop-opacity:0" offset="1"/>
    </linearGradient>
    <linearGradient id="Y" y2="1.812" gradientUnits="userSpaceOnUse" x2="10.789" y1="1.812" x1="7.323">
      <stop style="stop-color:#58730f" offset="0"/>
      <stop style="stop-color:#576b00" offset="1"/>
    </linearGradient>
    <linearGradient id="m" y2="5.21" gradientUnits="userSpaceOnUse" x2="17.486" y1="5.21" x1="15.026">
      <stop style="stop-color:#fff" offset="0"/>
      <stop style="stop-color:#fff;stop-opacity:0" offset="1"/>
    </linearGradient>
    <linearGradient id="ab" y2="5.21" gradientUnits="userSpaceOnUse" x2="17.486" y1="5.21" x1="15.026">
      <stop style="stop-color:#58730f" offset="0"/>
      <stop style="stop-color:#576b00" offset="1"/>
    </linearGradient>
    <linearGradient id="o" y2="-2.082" gradientUnits="userSpaceOnUse" x2="33.116" y1="-2.082" x1="29.091">
      <stop style="stop-color:#fff" offset="0"/>
      <stop style="stop-color:#fff;stop-opacity:0" offset="1"/>
    </linearGradient>
    <linearGradient id="ae" y2="-2.082" gradientUnits="userSpaceOnUse" x2="33.116" y1="-2.082" x1="29.091">
      <stop style="stop-color:#58730f" offset="0"/>
      <stop style="stop-color:#576b00" offset="1"/>
    </linearGradient>
    <linearGradient id="q" y2="-6.16" gradientUnits="userSpaceOnUse" x2="30.858" y1="-6.16" x1="27.057">
      <stop style="stop-color:#fff" offset="0"/>
      <stop style="stop-color:#fff;stop-opacity:0" offset="1"/>
    </linearGradient>
    <linearGradient id="ah" y2="-6.16" gradientUnits="userSpaceOnUse" x2="30.858" y1="-6.16" x1="27.057">
      <stop style="stop-color:#58730f" offset="0"/>
      <stop style="stop-color:#576b00" offset="1"/>
    </linearGradient>
    <linearGradient id="s" y2="-6.497" gradientUnits="userSpaceOnUse" x2="24.097" y1="-6.497" x1="22.845">
      <stop style="stop-color:#fff" offset="0"/>
      <stop style="stop-color:#fff;stop-opacity:0" offset="1"/>
    </linearGradient>
    <linearGradient id="ak" y2="-6.497" gradientUnits="userSpaceOnUse" x2="24.097" y1="-6.497" x1="22.845">
      <stop style="stop-color:#58730f" offset="0"/>
      <stop style="stop-color:#576b00" offset="1"/>
    </linearGradient>
    <linearGradient id="u" y2="-9.408" gradientUnits="userSpaceOnUse" x2="27.169" y1="-9.408" x1="24.121">
      <stop style="stop-color:#fff" offset="0"/>
      <stop style="stop-color:#fff;stop-opacity:0" offset="1"/>
    </linearGradient>
    <linearGradient id="an" y2="-9.408" gradientUnits="userSpaceOnUse" x2="27.169" y1="-9.408" x1="24.121">
      <stop style="stop-color:#97c41b" offset="0"/>
      <stop style="stop-color:#cdff00" offset="1"/>
    </linearGradient>
    <linearGradient id="w" y2="2.177" gradientUnits="userSpaceOnUse" x2="26.585" y1="2.177" x1="23.839">
      <stop style="stop-color:#fff" offset="0"/>
      <stop style="stop-color:#fff;stop-opacity:0" offset="1"/>
    </linearGradient>
    <linearGradient id="aq" y2="2.177" gradientUnits="userSpaceOnUse" x2="26.585" y1="2.177" x1="23.839">
      <stop style="stop-color:#97c41b" offset="0"/>
      <stop style="stop-color:#cdff00" offset="1"/>
    </linearGradient>
    <mask id="y">
      <g clip-path="url(#a)">
        <path style="fill:#000;fill-opacity:.0586" d="M3 7h18v16H3V7z"/>
      </g>
    </mask>
    <mask id="B">
      <g clip-path="url(#b)">
        <path style="fill:#000;fill-opacity:.1211" d="M12 4h18v19H12V4z"/>
      </g>
    </mask>
    <mask id="E">
      <g clip-path="url(#c)">
        <path style="fill:#000;fill-opacity:.0898" d="M4 10h13v12H4V10z"/>
      </g>
    </mask>
    <mask id="H">
      <g clip-path="url(#d)">
        <path style="fill:#000;fill-opacity:.1797" d="M7 15h3v4H7v-4z"/>
      </g>
    </mask>
    <mask id="K">
      <g clip-path="url(#e)">
        <path style="fill:#000;fill-opacity:.1797" d="M7 14h2v2H7v-2z"/>
      </g>
    </mask>
    <mask id="R">
      <g clip-path="url(#f)">
        <path style="fill:url(#g)" d="M-16.382-9.052h8.897v4.236h-8.897v-4.236z"/>
      </g>
    </mask>
    <mask id="U">
      <g clip-path="url(#h)">
        <path style="fill:url(#i)" d="M-4.648-21.369h6.652v7.095h-6.652v-7.095z"/>
      </g>
    </mask>
    <mask id="X">
      <g clip-path="url(#j)">
        <path style="fill:url(#k)" d="M5.449-1.451h7.003v6.366H5.449v-6.366z"/>
      </g>
    </mask>
    <mask id="aa">
      <g clip-path="url(#l)">
        <path style="fill:url(#m)" d="M12.452 3.005h6.366v5.093h-6.366V3.005z"/>
      </g>
    </mask>
    <mask id="ad">
      <g clip-path="url(#n)">
        <path style="fill:url(#o)" d="M27.731-4.634h6.366V.459h-6.366v-5.093z"/>
      </g>
    </mask>
    <mask id="ag">
      <g clip-path="url(#p)">
        <path style="fill:url(#q)" d="M25.821-8.454h6.366v5.092h-6.366v-5.092z"/>
      </g>
    </mask>
    <mask id="aj">
      <g clip-path="url(#r)">
        <path style="fill:url(#s)" d="M22.064-8.235h3.183v2.529h-3.183v-2.53z"/>
      </g>
    </mask>
    <mask id="am">
      <g clip-path="url(#t)">
        <path style="fill:url(#u)" d="M24.325-11.883h5.09v4.95h-5.09v-4.95z"/>
      </g>
    </mask>
    <mask id="ap">
      <g clip-path="url(#v)">
        <path style="fill:url(#w)" d="M23.39-.186h4.718V3.39H23.39V-.186z"/>
      </g>
    </mask>
    <radialGradient id="x" gradientUnits="userSpaceOnUse" cy="9.396" cx="15.533" gradientTransform="scale(.70246) rotate(-29.651 42.949 21.759)" r="25.948">
      <stop style="stop-color:#ff280d" offset="0"/>
      <stop style="stop-color:#630000" offset="1"/>
    </radialGradient>
  </defs>
  <path style="fill-rule:evenodd;fill:url(#x)" d="M18.27 25.484c2.203.071 4.273-.656 6.218-2.175 3.114-2.414 4.543-5.434 4.282-9.063-.211-2.883-1.18-5.187-2.915-6.922-1.71-1.707-3.781-2.832-6.218-3.371-2.34-.515-4.879-.48-7.621.106-2.809.609-5.055 1.886-6.743 3.828-1.851 2.156-2.613 4.754-2.285 7.801.305 2.832 1.594 5.136 3.867 6.917 1.801 1.43 3.571 2.165 5.301 2.211 1.524.047 3.563.27 6.114.668z" transform="matrix(1.25 0 0 -1.25 0 40)"/>
  <g mask="url(#y)" transform="matrix(1.25 0 0 -1.25 0 40)">
    <g clip-path="url(#z)">
      <g clip-path="url(#A)">
        <path style="fill-rule:evenodd;fill:#f28457" d="M13.73 22.773c2.086-.328 3.793-1.367 5.129-3.125 1.707-2.222 1.977-4.625.809-7.199-1.125-2.484-3.023-4.074-5.691-4.777-2.649-.656-4.989-.41-7.024.738-2.109 1.168-3.187 2.926-3.234 5.266-.024 2.226.398 4.09 1.265 5.586.75 1.289 1.77 2.203 3.055 2.738 1.969.82 3.863 1.078 5.691.773z"/>
      </g>
    </g>
  </g>
  <g mask="url(#B)" transform="matrix(1.25 0 0 -1.25 0 40)">
    <g clip-path="url(#C)">
      <g clip-path="url(#D)">
        <path style="fill-rule:evenodd;fill:#571b09" d="M28.938 17.086c.468-2.578.011-5.117-1.372-7.625l-.246-.383-.035-.07c-.469-.656-.84-1.125-1.121-1.406-1.219-1.219-2.812-2.133-4.777-2.739-2.18-.539-4.215-.785-6.114-.738-.843.047-1.589.129-2.246.246l-.386.07c.656-.07 1.488-.058 2.492.036 2.015.164 3.91.628 5.691 1.402 2.016.891 3.547 2.402 4.602 4.531.984 1.969 1.336 3.969 1.054 6.008-.398 2.738-1.605 4.824-3.621 6.25.379.023.809.07 1.301.141.375.07.656.093.844.07.351-.047.668-.141.949-.281 1.098-1.098 1.895-2.246 2.387-3.442a10.7 10.7 0 0 0 .598-2.07z"/>
      </g>
    </g>
  </g>
  <g mask="url(#E)" transform="matrix(1.25 0 0 -1.25 0 40)">
    <g clip-path="url(#F)">
      <g clip-path="url(#G)">
        <path style="fill-rule:evenodd;fill:#f28457" d="M12.461 22c1.078 0 2.027-.375 2.848-1.125.886-.793 1.39-1.836 1.507-3.125.164-1.945-.328-3.652-1.472-5.129-1.242-1.59-2.895-2.445-4.953-2.562-2.203-.141-3.793.621-4.778 2.281-.937 1.57-1.066 3.371-.386 5.41.539 1.57 1.664 2.715 3.371 3.441a9.446 9.446 0 0 0 3.863.809z"/>
      </g>
    </g>
  </g>
  <g mask="url(#H)" transform="matrix(1.25 0 0 -1.25 0 40)">
    <g clip-path="url(#I)">
      <g clip-path="url(#J)">
        <path style="fill-rule:evenodd;fill:#fff" d="M9.723 18.258c.187-.516.152-.961-.106-1.336-.351-.469-.715-.774-1.086-.914-.328-.117-.597-.082-.808.105-.516.446-.692 1.02-.528 1.723.164.633.481.996.95 1.09.793.164 1.32-.059 1.578-.668z"/>
      </g>
    </g>
  </g>
  <g mask="url(#K)" transform="matrix(1.25 0 0 -1.25 0 40)">
    <g clip-path="url(#L)">
      <g clip-path="url(#M)">
        <path style="fill-rule:evenodd;fill:#fff" d="M8 15.129c.191-.141.246-.328.176-.563-.071-.211-.231-.281-.488-.211-.258.071-.317.247-.176.528.14.305.3.387.488.246z"/>
      </g>
    </g>
  </g>
  <path style="fill-rule:evenodd;fill:#5e9119" d="M25.328 22.922c-.183 0-.687-.047-1.508-.141-.562-.047-1.242-.023-2.039.071-.867.093-1.66.257-2.386.488l-.809.32 1.371-.844c1.004-.632 1.801-1.195 2.387-1.687 1.172-1.008 2.051-1.559 2.633-1.652.492-.067.902-.032 1.23.109-.117-.145-.316-.274-.598-.387-.582-.187-1.285-.176-2.105.035-.75.207-1.336.489-1.758.84-.539.492-1.078.949-1.617 1.371-.84.633-1.707 1.16-2.598 1.582l-1.09.453c-.796-.468-1.554-1.132-2.281-2a60.943 60.943 0 0 1-1.125-1.476c-.375-.328-1.043-.574-2-.738-.844-.141-1.863.105-3.058.738l1.476-.492c1.055-.184 1.793.105 2.215.879.328.539.605 1.078.84 1.617.164.375.351.703.562.984a3.158 3.158 0 0 0 2.075 1.16c.046.067-.622.176-2.004.313-.774.07-1.567-.043-2.387-.352-.844-.324-1.442-.476-1.793-.453-.606.02-1.121.184-1.543.492-.398.278-.598.606-.598.981l.035.738.211-.879c.329-.586.926-.808 1.789-.668.61.094 1.336.352 2.18.774a4.188 4.188 0 0 0 2.141.492c.89-.024 1.64-.176 2.25-.457.304-.164.527-.317.668-.457l.453.316a4.26 4.26 0 0 0 1.195.492c.281.071.715.036 1.301-.105.562-.117 1.027-.094 1.402.07.391.18.66.34.809.473a1.744 1.744 0 0 0-.879-.754c-.234-.094-.664-.141-1.297-.141-.562 0-.902-.035-1.019-.105l-.352-.246.668-.071c.563-.117 1.16-.281 1.793-.492 1.496-.515 2.961-.785 4.391-.808 1.074-.047 2.375-.371 3.898-.981-1.219.399-2.262.598-3.129.598z" transform="matrix(1.25 0 0 -1.25 0 40)"/>
  <path style="fill-rule:evenodd;fill:#31591e" d="M16.301 24.395c1.078-.094 1.687-.2 1.828-.317.141-.14.07-.266-.211-.383s-.68-.152-1.195-.105c-.446.047-.758.148-.95.316l-.136.246.664.243z" transform="matrix(1.25 0 0 -1.25 0 40)"/>
  <path style="fill-rule:evenodd;fill:url(#N)" d="m17.074 27.906-.14.492h.211c.187 0 .386-.035.597-.105.305-.117.422-.246.352-.387-.305-.019-.516-.019-.633 0h-.387z" transform="matrix(1.25 0 0 -1.25 0 40)"/>
  <path style="fill-rule:evenodd;fill:url(#O)" d="M17.777 27.906h.352a.578.578 0 0 1-.246-.105c-.258-.188-.41-.598-.457-1.227-.071-1.031 0-1.875.211-2.531-.141-.211-.504-.316-1.09-.316-.328 0-.574.07-.738.211l-.172.21c.207 1.43.476 2.497.804 3.196l.493 1.054.246-.246c.187-.16.386-.246.597-.246z" transform="matrix(1.25 0 0 -1.25 0 40)"/>
  <path style="fill-rule:evenodd;fill:url(#P)" d="M17.145 26.258c.07.844.199 1.312.386 1.406-.07-.027-.152-.094-.246-.211l-.246-.738.07.527c.164.328.223.539.176.633l-.176.316a.905.905 0 0 1 .668-.285h.317c-.399-.066-.621-.511-.668-1.332-.071-1.031 0-1.875.211-2.531-.141-.207-.504-.313-1.09-.313-.324 0-.57.071-.735.208l-.16.195c.075-.082.278-.125.618-.125.117 0 .175.105.175.32l.246.594v-.317c0-.164.036-.335.106-.527l.035.422.141.773v-1.121c.047-.164.117-.152.207.036-.071.535-.082 1.226-.035 2.07z" transform="matrix(1.25 0 0 -1.25 0 40)"/>
  <path style="fill-rule:evenodd;fill:#67a614" d="M16.934 27.629c.023-.07.086-.094.175-.07l-.316-.668c-.301-.821-.516-1.489-.629-2.004-.094-.422-.051-.012.137 1.23.351 1.266.562 1.77.633 1.512z" transform="matrix(1.25 0 0 -1.25 0 40)"/>
  <g clip-path="url(#Q)" transform="matrix(1.25 0 0 -1.25 0 40)">
    <g mask="url(#R)" transform="matrix(-.69256 -.11752 -.11752 .69256 2.92 28.4)">
      <path style="fill-rule:evenodd;fill:url(#S)" d="m14.266 25.098-.633.105a2.757 2.757 0 0 1-.633 0l-.176-.07.492-.106.317-.14h-.774l.668-.141c.282-.07.481-.141.598-.211-.375.094-.902.141-1.582.141-.445 0-.844-.059-1.195-.176l-.418-.141.246.106c.164.094.515.199 1.051.316l-.493-.07-.91-.246.422.14c.211.094.5.188.879.282l-.844-.141a41.476 41.476 0 0 1-.808-.246 11.07 11.07 0 0 0-.809-.141l1.723.563c.398.117.691.234.879.351l-1.055-.211.422.211c.328.165.621.247.879.247l.98-.106h-.664c-.164 0-.281-.023-.351-.07l-.071-.071h.84c.328 0 .668-.058 1.02-.175z"/>
    </g>
  </g>
  <g clip-path="url(#T)" transform="matrix(1.25 0 0 -1.25 0 40)">
    <g mask="url(#U)" transform="matrix(-.37512 -.59392 -.59392 .37512 2.92 28.4)">
      <path style="fill-rule:evenodd;fill:url(#V)" d="m13.105 21.094.176.246 1.196 1.828-.528-.316-.492-.633.035.176.422.738-.492-.492c-.164-.141-.305-.375-.422-.703a2.304 2.304 0 0 1-.141-.422c.047.257.153.574.317.949.094.258.199.433.316.527.07.07.117.106.141.106-.071 0-.129-.036-.176-.106l-.387-.351.211.316c.141.234.281.398.422.492l.317.106-.317-.387.281.176c.071.07.235.152.493.246l-.247-.211-.105-.281.242.211c.117.093.293.175.528.246l-.176-.141-.176-.387.352.387-.207-.281-.25-.422.281.246c.117.141.281.246.492.316l-.352-.351-.281-.387.527.352c.141.14.34.258.598.351l-.945-.808-.528-.563.176.281.137.317a.766.766 0 0 1-.176-.141 1.565 1.565 0 0 1-.277-.386 3.933 3.933 0 0 0-.598-.739l.699 1.336-.457-.633a6.346 6.346 0 0 0-.629-.808z"/>
    </g>
  </g>
  <g clip-path="url(#W)" transform="matrix(1.25 0 0 -1.25 0 40)">
    <g mask="url(#X)" transform="matrix(.62832 -.31416 -.31416 -.62832 2.92 28.4)">
      <path style="fill-rule:evenodd;fill:url(#Y)" d="M7.66 24.078c-.324.164-.558.457-.699.879l-.106.563.106-.317a1.64 1.64 0 0 1 .312-.527c.188-.188.504-.317.95-.387a3.03 3.03 0 0 1 .843 0l-.984-.141.457-.07c.258-.019.621 0 1.09.074-.047-.074-.352-.117-.914-.144-.352-.02-.621 0-.809.07l.176-.101c.211-.094.539-.133.984-.106-.375-.098-.843-.027-1.406.207z"/>
    </g>
  </g>
  <g clip-path="url(#Z)" transform="matrix(1.25 0 0 -1.25 0 40)">
    <g mask="url(#aa)" transform="matrix(.62832 -.31416 -.31416 -.62832 2.92 28.4)">
      <path style="fill-rule:evenodd;fill:url(#ab)" d="M11.633 19.898c.094-.023.222.082.387.321l.453.699a2.505 2.505 0 0 0-.348-.773l-.387-.418.282.101.316.211a1.337 1.337 0 0 0-.422-.348l-.246-.144c0-.07.141-.031.422.109l.562.242c-.187-.257-.644-.421-1.371-.488-.469-.047-.832-.058-1.09-.035l-.246.035.211.035c.422-.07.762.012 1.02.246.258.231.5.512.734.84l-.277-.633z"/>
    </g>
  </g>
  <g clip-path="url(#ac)" transform="matrix(1.25 0 0 -1.25 0 40)">
    <g mask="url(#ad)" transform="matrix(.62832 -.31416 -.31416 -.62832 2.92 28.4)">
      <path style="fill-rule:evenodd;fill:url(#ae)" d="m21.43 20.566.386-.316c.141-.141.34-.27.598-.387a.885.885 0 0 0-.281.246l-.422.563.422-.457c.164-.164.375-.27.633-.317l-.246.176-.352.317.281-.211.317-.106-.246.176-.528.668.633-.527c.281-.258.41-.317.387-.176l-.422.562.879-.703c.445-.304.679-.433.703-.386.07-.047.058-.071-.035-.071l-.633.176.316-.176c.141-.07.352-.14.633-.211l-.422.035-.703.145.563-.25c.218-.074.398-.129.543-.156-.344.039-.817.14-1.422.297-.489.14-.903.363-1.231.668l-.351.421z"/>
    </g>
  </g>
  <g clip-path="url(#af)" transform="matrix(1.25 0 0 -1.25 0 40)">
    <g mask="url(#ag)" transform="matrix(.62832 -.31416 -.31416 -.62832 2.92 28.4)">
      <path style="fill-rule:evenodd;fill:url(#ah)" d="M23.539 23.273h-.176l-.246-.07 1.332-.035-1.051-.141h1.473l-1.789-.175c-.398-.024-.727 0-.984.07l-.282.105c.375-.07.657-.07.844 0l-1.09.211.387-.035c.188-.023.398-.012.633.035h-.563c-.14 0-.304.047-.492.141l-.246.141.668-.18c.328-.067.539-.082.633-.031h-.176l-.281.171 1.406-.207z"/>
    </g>
  </g>
  <g clip-path="url(#ai)" transform="matrix(1.25 0 0 -1.25 0 40)">
    <g mask="url(#aj)" transform="matrix(.63112 -.30856 -.30856 -.63112 2.92 28.4)">
      <path style="fill-rule:evenodd;fill:url(#ak)" d="M19.148 25.344c.188-.094.434-.141.739-.141.234 0 .383.024.453.07-.113-.093-.278-.152-.492-.175-.211-.024-.371-.012-.489.035l-.211.211z"/>
    </g>
  </g>
  <g clip-path="url(#al)" transform="matrix(1.25 0 0 -1.25 0 40)">
    <g mask="url(#am)" transform="matrix(.53008 -.46096 -.46096 -.53008 2.92 28.4)">
      <path style="fill-rule:evenodd;fill:url(#an)" d="m21.57 21.375-.211.07.211-.211a.956.956 0 0 0 .246-.281l-.316.246-.387.141.075-.035.207-.317c-.047 0-.149.071-.317.211-.09.094-.164.129-.211.106v-.071l.141-.422-.211.317-.524.387.493-.176v.105l-.075.141.282-.106-.348.352.316-.141c.141-.093.247-.129.317-.105l-.387.387.527-.282c.141-.093.375-.304.704-.632l-.563.457.246-.246-.215.105z"/>
    </g>
  </g>
  <g clip-path="url(#ao)" transform="matrix(1.25 0 0 -1.25 0 40)">
    <g mask="url(#ap)" transform="matrix(.69072 -.12792 -.12792 -.69072 2.92 28.4)">
      <path style="fill-rule:evenodd;fill:url(#aq)" d="m20.34 23.379.07-.07a.79.79 0 0 1 .281-.106l.387-.07-.914.14-.527.137.703.035-.77.352h.7l-.247.176-.281.07-.035.07.492-.14.317-.141-.352.07.633-.382-.527.14h-.141l.773-.281a1.212 1.212 0 0 0-.422 0h-.14z"/>
    </g>
  </g>
</svg>
